<?xml version="1.0" encoding="UTF-8" standalone="no"?><!DOCTYPE svg PUBLIC "-//W3C//DTD SVG 1.1//EN" "http://www.w3.org/Graphics/SVG/1.1/DTD/svg11.dtd"><svg width="100%" height="100%" viewBox="0 0 336 288" version="1.1" xmlns="http://www.w3.org/2000/svg" xmlns:xlink="http://www.w3.org/1999/xlink" xml:space="preserve" xmlns:serif="http://www.serif.com/" style="fill-rule:evenodd;clip-rule:evenodd;stroke-linejoin:round;stroke-miterlimit:1.41421;"><rect id="layer-1" x="97.32" y="24" width="141.36" height="264" style="fill:#a0ffdb;"/><g id="layer-2"><rect x="104.76" y="33.84" width="126.48" height="19.44" style="fill:#20eeb8;"/><rect x="104.76" y="236.16" width="126.48" height="42.48" style="fill:#20eeb8;"/><rect x="104.76" y="64.72" width="126.48" height="60" style="fill:#20eeb8;"/><rect x="104.76" y="136.16" width="126.48" height="88.56" style="fill:#20eeb8;"/></g><g id="layer-3"><rect x="111.24" y="38.24" width="18.081" height="10.64" style="fill:#1dd39c;"/><rect x="138.254" y="42.6" width="21.84" height="1.92" style="fill:#1dd39c;"/><rect x="169.027" y="42.6" width="21.84" height="1.92" style="fill:#1dd39c;"/><rect x="199.8" y="42.6" width="21.84" height="1.92" style="fill:#1dd39c;"/><rect x="114.36" y="244.56" width="107.28" height="2.16" style="fill:#1dd39c;"/><rect x="114.36" y="252.4" width="107.28" height="2.16" style="fill:#1dd39c;"/><rect x="114.36" y="260.24" width="107.28" height="2.16" style="fill:#1dd39c;"/><rect x="114.36" y="268.08" width="107.28" height="2.16" style="fill:#1dd39c;"/><rect x="175.2" y="73.48" width="44.4" height="42.48" style="fill:#1dd39c;"/><rect x="116.4" y="73.48" width="44.4" height="42.48" style="fill:#1dd39c;"/><circle cx="128.28" cy="160.04" r="18.12" style="fill:#1dd39c;"/><circle cx="128.28" cy="200.72" r="18.12" style="fill:#1dd39c;"/><circle cx="168.78" cy="160.04" r="18.12" style="fill:#1dd39c;"/><circle cx="168.78" cy="200.72" r="18.12" style="fill:#1dd39c;"/><circle cx="209.28" cy="160.04" r="18.12" style="fill:#1dd39c;"/><circle cx="209.28" cy="200.72" r="18.12" style="fill:#1dd39c;"/></g><g id="layer-4"><path d="M210.153,85.929c0.969,-0.969 0.969,-2.539 0,-3.508c-0.968,-0.969 -2.539,-0.969 -3.508,0c-0.647,0.647 -0.852,1.563 -0.634,2.388l-1.281,1.281c-1.785,-1.208 -3.938,-1.915 -6.255,-1.915c-2.318,0 -4.47,0.707 -6.255,1.915l-1.282,-1.281c0.219,-0.825 0.014,-1.741 -0.634,-2.388c-0.969,-0.969 -2.539,-0.969 -3.508,0c-0.969,0.969 -0.969,2.539 0,3.508c0.648,0.648 1.562,0.851 2.388,0.634l1.151,1.151c-1.87,1.998 -3.025,4.674 -3.025,7.626l0,8.684c0,2.055 1.666,3.722 3.721,3.722c2.056,0 3.722,-1.667 3.722,-3.722c0,2.055 1.666,3.722 3.722,3.722c2.055,0 3.721,-1.667 3.721,-3.722c0,2.055 1.667,3.722 3.722,3.722c2.056,0 3.722,-1.667 3.722,-3.722l0,-8.684c0,-2.952 -1.155,-5.628 -3.026,-7.626l1.151,-1.151c0.827,0.217 1.741,0.014 2.388,-0.634Zm-11.678,13.133c-2.741,0 -4.963,-2.222 -4.963,-4.962c0,-2.741 2.222,-4.963 4.963,-4.963c2.74,0 4.962,2.222 4.962,4.963c0,2.74 -2.222,4.962 -4.962,4.962Zm0,-7.444c-1.37,0 -2.481,1.112 -2.481,2.482c0,1.369 1.111,2.481 2.481,2.481c1.369,0 2.481,-1.112 2.481,-2.481c0,-1.37 -1.112,-2.482 -2.481,-2.482Z" style="fill:#00ffd2;"/><path d="M141.856,81.694c0.666,0 1.264,0.406 1.513,1.023l0.892,2.234l7.365,0l0,-1.629l3.256,0l0,6.513l-3.256,0l0,-1.628l-6.062,0l0.651,1.628l0.526,0c0.546,0 1.054,0.272 1.355,0.725l2.836,4.254c3.146,0.458 5.579,3.146 5.579,6.419c0,3.59 -2.922,6.513 -6.513,6.513l-22.796,0c-3.591,0 -6.513,-2.923 -6.513,-6.513c0,-3.177 2.287,-5.818 5.299,-6.391l1.297,-3.893c0.222,-0.666 0.844,-1.114 1.546,-1.114l0.526,0l2.846,-7.118c0.249,-0.617 0.846,-1.023 1.512,-1.023l8.141,0Zm8.142,22.795c1.796,0 3.256,-1.462 3.256,-3.256c0,-1.796 -1.46,-3.257 -3.256,-3.257l-22.796,0c-1.796,0 -3.256,1.461 -3.256,3.257c0,1.794 1.46,3.256 3.256,3.256l22.796,0Zm-19.539,-5.291c-1.125,0 -2.035,0.913 -2.035,2.035c0,1.123 0.91,2.035 2.035,2.035c1.125,0 2.035,-0.912 2.035,-2.035c0,-1.122 -0.91,-2.035 -2.035,-2.035Zm8.141,0c-1.125,0 -2.035,0.913 -2.035,2.035c0,1.123 0.91,2.035 2.035,2.035c1.125,0 2.035,-0.912 2.035,-2.035c0,-1.122 -0.91,-2.035 -2.035,-2.035Zm8.141,0c-1.125,0 -2.035,0.913 -2.035,2.035c0,1.123 0.91,2.035 2.035,2.035c1.125,0 2.035,-0.912 2.035,-2.035c0,-1.122 -0.91,-2.035 -2.035,-2.035Zm0.213,-4.478l-1.084,-1.628l-15.865,0l-0.544,1.628l17.493,0Zm-4.246,-4.885l-1.954,-4.884l-5.936,0l-1.954,4.884l9.844,0Z" style="fill:#00ffd2;"/></g></svg>