<?xml version="1.0" encoding="UTF-8" standalone="no"?><!DOCTYPE svg PUBLIC "-//W3C//DTD SVG 1.1//EN" "http://www.w3.org/Graphics/SVG/1.1/DTD/svg11.dtd"><svg width="100%" height="100%" viewBox="0 0 118 233" version="1.1" xmlns="http://www.w3.org/2000/svg" xmlns:xlink="http://www.w3.org/1999/xlink" xml:space="preserve" xmlns:serif="http://www.serif.com/" style="fill-rule:evenodd;clip-rule:evenodd;stroke-linejoin:round;stroke-miterlimit:1.41421;"><g id="layer-3"><rect x="1.08" y="0.08" width="18.081" height="10.64" style="fill:#1dd39c;"/><rect x="28.094" y="4.44" width="21.84" height="1.92" style="fill:#1dd39c;"/><rect x="58.867" y="4.44" width="21.84" height="1.92" style="fill:#1dd39c;"/><rect x="89.64" y="4.44" width="21.84" height="1.92" style="fill:#1dd39c;"/><rect x="4.2" y="206.4" width="107.28" height="2.16" style="fill:#1dd39c;"/><rect x="4.2" y="214.24" width="107.28" height="2.16" style="fill:#1dd39c;"/><rect x="4.2" y="222.08" width="107.28" height="2.16" style="fill:#1dd39c;"/><rect x="4.2" y="229.92" width="107.28" height="2.16" style="fill:#1dd39c;"/><rect x="65.04" y="35.32" width="44.4" height="42.48" style="fill:#1dd39c;"/><rect x="6.24" y="35.32" width="44.4" height="42.48" style="fill:#1dd39c;"/><circle cx="18.12" cy="121.88" r="18.12" style="fill:#1dd39c;"/><circle cx="18.12" cy="162.56" r="18.12" style="fill:#1dd39c;"/><circle cx="58.62" cy="121.88" r="18.12" style="fill:#1dd39c;"/><circle cx="58.62" cy="162.56" r="18.12" style="fill:#1dd39c;"/><circle cx="99.12" cy="121.88" r="18.12" style="fill:#1dd39c;"/><circle cx="99.12" cy="162.56" r="18.12" style="fill:#1dd39c;"/></g></svg>