<svg viewBox="0 0 118 233" xmlns="http://www.w3.org/2000/svg" fill-rule="evenodd" clip-rule="evenodd" stroke-linejoin="round" stroke-miterlimit="1.414"><g fill="#1dd39c"><path d="M1.08.08h18.081v10.64H1.08zm27.014 4.36h21.84v1.92h-21.84zm30.773 0h21.84v1.92h-21.84zm30.773 0h21.84v1.92H89.64zM4.2 206.4h107.28v2.16H4.2zm0 7.84h107.28v2.16H4.2zm0 7.84h107.28v2.16H4.2zm0 7.84h107.28v2.16H4.2zm60.84-194.6h44.4V77.8h-44.4zm-58.8 0h44.4V77.8H6.24z"/><circle cx="18.12" cy="121.88" r="18.12"/><circle cx="18.12" cy="162.56" r="18.12"/><circle cx="58.62" cy="121.88" r="18.12"/><circle cx="58.62" cy="162.56" r="18.12"/><circle cx="99.12" cy="121.88" r="18.12"/><circle cx="99.12" cy="162.56" r="18.12"/></g></svg>