<svg viewBox="0 0 91 27" xmlns="http://www.w3.org/2000/svg" fill-rule="evenodd" clip-rule="evenodd" stroke-linejoin="round" stroke-miterlimit="1.414"><path d="M89.673 4.329A2.48 2.48 0 1 0 86.165.821a2.473 2.473 0 0 0-.634 2.388L84.25 4.49a11.124 11.124 0 0 0-6.255-1.915c-2.318 0-4.47.707-6.255 1.915l-1.282-1.281a2.468 2.468 0 0 0-.634-2.388 2.48 2.48 0 1 0-3.508 3.508 2.473 2.473 0 0 0 2.388.634l1.151 1.151a11.123 11.123 0 0 0-3.025 7.626v8.684a3.722 3.722 0 1 0 7.443 0 3.722 3.722 0 0 0 7.443 0 3.723 3.723 0 0 0 7.444 0V13.74a11.12 11.12 0 0 0-3.026-7.626l1.151-1.151a2.471 2.471 0 0 0 2.388-.634zM77.995 17.462a4.963 4.963 0 1 1 0-9.926 4.963 4.963 0 0 1 0 9.926zm0-7.444a2.482 2.482 0 0 0 0 4.963 2.483 2.483 0 0 0 0-4.963zM21.376.094c.666 0 1.264.406 1.513 1.023l.892 2.234h7.365V1.722h3.256v6.513h-3.256V6.607h-6.062l.651 1.628h.526c.546 0 1.054.272 1.355.725l2.836 4.254c3.146.458 5.579 3.146 5.579 6.419a6.521 6.521 0 0 1-6.513 6.513H6.722a6.521 6.521 0 0 1-6.513-6.513c0-3.177 2.287-5.818 5.299-6.391l1.297-3.893a1.628 1.628 0 0 1 1.546-1.114h.526l2.846-7.118A1.631 1.631 0 0 1 13.235.094h8.141zm8.142 22.795a3.26 3.26 0 0 0 3.256-3.256 3.26 3.26 0 0 0-3.256-3.257H6.722a3.26 3.26 0 0 0-3.256 3.257 3.26 3.26 0 0 0 3.256 3.256h22.796zM9.979 17.598a2.036 2.036 0 1 0 .001 4.071 2.036 2.036 0 0 0-.001-4.071zm8.141 0a2.036 2.036 0 1 0 .001 4.071 2.036 2.036 0 0 0-.001-4.071zm8.141 0a2.036 2.036 0 1 0 .001 4.071 2.036 2.036 0 0 0-.001-4.071zm.213-4.478l-1.084-1.628H9.525l-.544 1.628h17.493zm-4.246-4.885l-1.954-4.884h-5.936l-1.954 4.884h9.844z" fill="#00ffd2"/></svg>